<?xml version="1.0" encoding="utf-8"?>
<!-- Uploaded to: SVG Repo, www.svgrepo.com, Generator: SVG Repo Mixer Tools -->
<svg xmlns="http://www.w3.org/2000/svg" xmlns:xlink="http://www.w3.org/1999/xlink" version="1.1" id="pcunit"  viewBox="0 0 198.6274 224" enable-background="new 0 0 198.6274 224" xml:space="preserve" width="512" height="512">
<g>
	<circle fill="#5CB0FF" cx="127.7476" cy="104" r="4"/>
	<circle fill="#D0E8FF" cx="127.7476" cy="132" r="4"/>
	<rect x="55.7476" y="204" fill="#D0E8FF" width="92" height="12"/>
	<path fill="#D0E8FF" d="M55.7476,8v188h92V8H55.7476z M65.7476,20h72.125v8h-72.125V20z M139.7476,104c0,6.6172-5.3828,12-12,12   s-12-5.3828-12-12s5.3828-12,12-12S139.7476,97.3828,139.7476,104z M65.7476,40h72.125v8h-72.125V40z M127.7476,144   c-6.6172,0-12-5.3828-12-12s5.3828-12,12-12s12,5.3828,12,12S134.3647,144,127.7476,144z"/>
	<path fill="#1C71DA" d="M47.7476,0v196v8v20h108v-20v-8V0H47.7476z M147.7476,216h-92v-12h92V216z M55.7476,196V8h92v188H55.7476z"/>
	<path fill="#1C71DA" d="M127.7476,92c-6.6172,0-12,5.3828-12,12s5.3828,12,12,12s12-5.3828,12-12S134.3647,92,127.7476,92z    M127.7476,108c-2.2051,0-4-1.7949-4-4s1.7949-4,4-4s4,1.7949,4,4S129.9526,108,127.7476,108z"/>
	<path fill="#1C71DA" d="M127.7476,120c-6.6172,0-12,5.3828-12,12s5.3828,12,12,12s12-5.3828,12-12S134.3647,120,127.7476,120z    M127.7476,136c-2.2051,0-4-1.7949-4-4s1.7949-4,4-4s4,1.7949,4,4S129.9526,136,127.7476,136z"/>
	<rect x="65.7476" y="20" fill="#1C71DA" width="72.125" height="8"/>
	<rect x="65.7476" y="40" fill="#1C71DA" width="72.125" height="8"/>
</g>
<path fill="#FF5D5D" d="M176,51.8237c-1.0239,0-2.0474-0.3906-2.8286-1.1714c-1.562-1.5625-1.562-4.0947,0-5.6572l14.1421-14.1421  c1.5625-1.5615,4.0947-1.5615,5.6572,0c1.562,1.5625,1.562,4.0947,0,5.6572l-14.1421,14.1421  C178.0474,51.4331,177.0239,51.8237,176,51.8237z"/>
<path fill="#FF5D5D" d="M190.1421,51.8223c-1.0239,0-2.0474-0.3906-2.8286-1.1714l-14.1421-14.1426  c-1.562-1.5625-1.562-4.0952,0-5.6572c1.5635-1.5615,4.0957-1.5605,5.6572,0l14.1421,14.1426c1.562,1.5625,1.562,4.0952,0,5.6572  C192.1895,51.4316,191.1655,51.8223,190.1421,51.8223z"/>
<path fill="#00D40B" d="M14,195.8237c-7.7197,0-14-6.2803-14-14s6.2803-14,14-14s14,6.2803,14,14S21.7197,195.8237,14,195.8237z   M14,175.8237c-3.3086,0-6,2.6914-6,6s2.6914,6,6,6s6-2.6914,6-6S17.3086,175.8237,14,175.8237z"/>
<path fill="#FFC504" d="M183.3135,130.4492c-1.0239,0-2.0474-0.3906-2.8286-1.1714l-11.3135-11.3135  c-1.562-1.5625-1.562-4.0947,0-5.6572l11.3135-11.3135c1.5625-1.5615,4.0952-1.5615,5.6567,0l11.314,11.3135  c0.7505,0.7505,1.1719,1.7676,1.1719,2.8286s-0.4214,2.0781-1.1719,2.8286l-11.314,11.3135  C185.3608,130.0586,184.3369,130.4492,183.3135,130.4492z M177.6567,115.1357l5.6567,5.6567l5.6572-5.6567l-5.6572-5.6567  L177.6567,115.1357z"/>
</svg>