<?xml version="1.0" encoding="utf-8"?>
<!-- Uploaded to: SVG Repo, www.svgrepo.com, Generator: SVG Repo Mixer Tools -->
<svg xmlns="http://www.w3.org/2000/svg" xmlns:xlink="http://www.w3.org/1999/xlink" version="1.1" id="laptop"  viewBox="0 0 235.9999 164" enable-background="new 0 0 235.9999 164" xml:space="preserve" width="512" height="512">
<g>
	<path fill="#D0E8FF" d="M212,8H28v100h184V8z M72,14.3438L77.6563,20L45.3164,52.3398l-5.6562-5.6562L72,14.3438z M44,73.6562   L38.3438,68L92,14.3438L97.6563,20L44,73.6562z"/>
	<path fill="#5CB0FF" d="M26.666,116L10,156h216.4512l-13.334-40H26.666z M76,152H56v-8h20V152z M152,152H84v-8h68V152z M180,152   h-20v-8h20V152z"/>
	<path fill="#1C71DA" d="M235.795,158.7344L220,111.3496V4c0-2.2109-1.791-4-4-4H24c-2.209,0-4,1.7891-4,4v107.2017L0.3086,158.4609   c-0.5156,1.2344-0.3789,2.6445,0.3633,3.7578S2.6621,164,4,164h228c1.2852,0,2.4922-0.6172,3.2441-1.6602   S236.2012,159.9531,235.795,158.7344z M28,8h184v100H28V8z M10,156l16.666-40h186.4512l13.334,40H10z"/>
	
		<rect x="35.7905" y="29.3422" transform="matrix(0.7071 -0.7071 0.7071 0.7071 -6.3956 51.2432)" fill="#1C71DA" width="45.7354" height="7.9991"/>
	
		<rect x="30.0593" y="40.0004" transform="matrix(0.7071 -0.7071 0.7071 0.7071 -11.1959 60.9706)" fill="#1C71DA" width="75.8814" height="7.9991"/>
	<rect x="84" y="144" fill="#1C71DA" width="68" height="8"/>
	<rect x="160" y="144" fill="#1C71DA" width="20" height="8"/>
	<rect x="56" y="144" fill="#1C71DA" width="20" height="8"/>
</g>
<path fill="#FF5D5D" d="M168.2525,99.8223c-1.0239,0-2.0474-0.3906-2.8286-1.1719c-1.562-1.5615-1.562-4.0947,0-5.6562  l14.1421-14.1426c1.5625-1.5625,4.0947-1.5625,5.6572,0c1.562,1.5615,1.562,4.0947,0,5.6562l-14.1421,14.1426  C170.2998,99.4316,169.2764,99.8223,168.2525,99.8223z"/>
<path fill="#FF5D5D" d="M182.3946,99.8223c-1.0239,0-2.0474-0.3906-2.8286-1.1719l-14.1421-14.1416  c-1.562-1.5615-1.562-4.0947,0-5.6562c1.5625-1.5625,4.0947-1.5625,5.6572,0l14.1421,14.1416c1.562,1.5615,1.562,4.0947,0,5.6562  C184.4419,99.4316,183.4185,99.8223,182.3946,99.8223z"/>
<path fill="#00D40B" d="M98.2525,91.8223c-7.7197,0-14-6.2803-14-14s6.2803-14,14-14s14,6.2803,14,14  S105.9722,91.8223,98.2525,91.8223z M98.2525,71.8223c-3.3086,0-6,2.6914-6,6s2.6914,6,6,6s6-2.6914,6-6  S101.5611,71.8223,98.2525,71.8223z"/>
<path fill="#FFC504" d="M127.5659,46.4492c-1.0239,0-2.0474-0.3906-2.8286-1.1719l-11.3135-11.3135  c-1.562-1.5615-1.562-4.0947,0-5.6562l11.3135-11.3135c1.5625-1.5625,4.0952-1.5625,5.6567,0l11.314,11.3135  c0.7505,0.75,1.1719,1.7676,1.1719,2.8281s-0.4214,2.0781-1.1719,2.8281l-11.314,11.3135  C129.6133,46.0586,128.5894,46.4492,127.5659,46.4492z M121.9092,31.1357l5.6567,5.6562l5.6572-5.6562l-5.6572-5.6562  L121.9092,31.1357z"/>
</svg>