<?xml version="1.0" encoding="utf-8"?>
<!-- Uploaded to: SVG Repo, www.svgrepo.com, Generator: SVG Repo Mixer Tools -->
<svg xmlns="http://www.w3.org/2000/svg" xmlns:xlink="http://www.w3.org/1999/xlink" version="1.1" id="ramchip"  viewBox="0 0 237.5859 237.5859" enable-background="new 0 0 237.5859 237.5859" xml:space="preserve" width="512" height="512">
<g>
	<path fill="#D0E8FF" d="M96.375,113.3398c-0.7852-0.7812-1.8125-1.1758-2.8438-1.1758c-1.0273,0-2.0586,0.3945-2.8438,1.1797   l-2.8008,2.7969c-1.5664,1.5703-1.5664,4.1211,0,5.6875l19.5781,19.5781c1.5664,1.5586,4.1133,1.5703,5.6875-0.0039l2.793-2.7969   c0.7656-0.7617,1.1875-1.7735,1.1875-2.8438c-0.0039-1.0742-0.4219-2.082-1.1836-2.8438L96.375,113.3398z"/>
	<path fill="#D0E8FF" d="M70.918,138.7969c-0.7617-0.7617-1.7695-1.1797-2.8438-1.1797s-2.082,0.418-2.8438,1.1797l-2.8008,2.8008   c-1.5664,1.5664-1.5625,4.1211,0.0039,5.6875l19.5742,19.5742c1.5703,1.5703,4.125,1.5664,5.6875,0l2.7969-2.8008   c0.7656-0.7617,1.1836-1.7734,1.1836-2.8438s-0.418-2.0781-1.1797-2.8398L70.918,138.7969z"/>
	<path fill="#D0E8FF" d="M121.8281,87.8867c-0.7617-0.7617-1.7695-1.1797-2.8398-1.1797h-0.0039   c-1.0703,0-2.0781,0.418-2.8398,1.1797l-2.8008,2.8008c-0.7617,0.7617-1.1836,1.7734-1.1836,2.8438   c0.0039,1.0703,0.4219,2.0781,1.1836,2.8398l19.5781,19.5781c0.7617,0.7617,1.7695,1.1797,2.8398,1.1797h0.0039   c1.0703,0,2.0781-0.418,2.8398-1.1797l2.8008-2.8008c0.7617-0.7617,1.1836-1.7695,1.1836-2.8398   c0-1.0742-0.4219-2.082-1.1836-2.8398L121.8281,87.8867z"/>
	<path fill="#D0E8FF" d="M45.4609,164.2539c-0.7617-0.7617-1.7695-1.1797-2.8438-1.1797c-1.0703,0-2.0781,0.418-2.8359,1.1797   l-2.8047,2.8008c-0.7617,0.7617-1.1836,1.7695-1.1836,2.8398c0,1.0742,0.4219,2.082,1.1836,2.8398v0.0039l19.5781,19.5781   c0.7617,0.7617,1.7695,1.1797,2.8398,1.1797h0.0039c1.0703,0,2.0781-0.418,2.8398-1.1797l2.8008-2.8008   c0.7617-0.7617,1.1797-1.7734,1.1797-2.8438s-0.418-2.0781-1.1797-2.8398L45.4609,164.2539z"/>
	<path fill="#D0E8FF" d="M147.2852,62.4297c-0.7617-0.7617-1.7695-1.1797-2.8438-1.1797s-2.082,0.418-2.8438,1.1797l-2.793,2.8008   c-0.7656,0.7617-1.1875,1.7695-1.1875,2.8398c0,1.0742,0.4219,2.082,1.1836,2.8398v0.0039l19.5742,19.5781   c0.7617,0.7617,1.7695,1.1797,2.8438,1.1797s2.082-0.418,2.8438-1.1797l2.8008-2.8008c0.7617-0.7617,1.1796-1.7734,1.1796-2.8438   s-0.4179-2.0781-1.1796-2.8398L147.2852,62.4297z"/>
	<path fill="#5CB0FF" d="M216.377,52.3262l-41.0137-41.0137L11.3125,175.3594l42.4258,42.4297l73.5391-73.5391l16.9727-16.9727   l73.5371-73.5371l-1.4121-1.4121L216.377,52.3262z M70.6953,195.1719l-2.8008,2.8008c-2.2695,2.2695-5.2852,3.5234-8.4922,3.5234   c-0.0039,0-0.0039,0-0.0078,0c-3.207,0-6.2227-1.25-8.4961-3.5234l-19.5781-19.5781c-2.2734-2.2695-3.5273-5.289-3.5273-8.5   c0-3.207,1.2539-6.2266,3.5273-8.5l2.8008-2.7969c2.2656-2.2695,5.2852-3.5234,8.4922-3.5234h0.0039   c3.2109,0,6.2266,1.25,8.5,3.5234l19.5781,19.5781C75.3828,182.8633,75.3828,190.4844,70.6953,195.1719z M96.1523,169.7148   l-2.7969,2.8047c-2.3477,2.3398-5.4258,3.5117-8.5039,3.5117c-3.082,0-6.1602-1.1719-8.5039-3.5156l-19.5703-19.5742   c-4.6836-4.6836-4.6875-12.3125-0.0078-17l2.8047-2.8008c4.6875-4.6875,12.3125-4.6875,17,0l19.5781,19.5781   c2.2695,2.2695,3.5234,5.2891,3.5234,8.4922C99.6797,164.4219,98.4258,167.4414,96.1523,169.7148z M121.6055,144.2617   l-2.793,2.8008c-2.3477,2.3398-5.4297,3.5117-8.5078,3.5117s-6.1562-1.168-8.4961-3.5117l-19.5781-19.5781   c-4.6836-4.6836-4.6836-12.3086-0.0039-17l2.8047-2.8008c4.6875-4.6875,12.3125-4.6875,17,0l19.5742,19.5781   c2.2734,2.2695,3.5234,5.2891,3.5273,8.4922C125.1328,138.9648,123.8828,141.9844,121.6055,144.2617z M147.0625,118.8086   l-2.8008,2.7969c-2.3438,2.3437-5.4219,3.5156-8.5,3.5156c-3.0742,0-6.1523-1.1719-8.4961-3.5156l-19.5781-19.5781   c-2.2734-2.2695-3.5234-5.2852-3.5273-8.4922c0-3.2109,1.25-6.2305,3.5273-8.5078l2.8008-2.7969   c4.6875-4.6797,12.3086-4.6875,16.9961,0l19.5781,19.5781c2.2734,2.2695,3.5273,5.2891,3.5273,8.5   C150.5898,113.5156,149.3359,116.5352,147.0625,118.8086z M172.5195,93.3477l-2.8008,2.8008   c-2.2695,2.2695-5.2891,3.5234-8.4961,3.5234h-0.0039c-3.2109,0-6.2266-1.25-8.5-3.5234l-19.5742-19.5781   c-2.2734-2.2734-3.5273-5.2891-3.5273-8.5c0-3.207,1.2539-6.2266,3.5273-8.5l2.793-2.7969c2.2734-2.2695,5.293-3.5234,8.5-3.5234   h0.0039c3.2109,0,6.2266,1.25,8.5,3.5234l19.5781,19.5781C177.207,81.0391,177.207,88.6602,172.5195,93.3477z M197.9727,67.8945   l-2.793,2.8008c-2.3477,2.3398-5.4258,3.5117-8.5039,3.5117c-3.082,0-6.1602-1.1719-8.5039-3.5156l-19.5742-19.5742   c-4.6836-4.6836-4.6836-12.3086-0.0039-17l2.8047-2.8008c2.2695-2.2695,5.2891-3.5234,8.4961-3.5234h0.0039   c3.2109,0,6.2266,1.25,8.5,3.5234l19.5742,19.5781c2.2734,2.2695,3.5234,5.2891,3.5273,8.4922   C201.5,62.5977,200.25,65.6172,197.9727,67.8945z"/>
	<path fill="#D0E8FF" d="M172.7422,36.9727c-0.7617-0.7617-1.7695-1.1797-2.8438-1.1797s-2.082,0.418-2.8438,1.1797l-2.8008,2.8008   c-1.5664,1.5703-1.5664,4.1211,0,5.6875l19.5781,19.5742c1.5703,1.5703,4.125,1.5664,5.6875,0l2.793-2.7969   c0.7656-0.7617,1.1875-1.7734,1.1875-2.8438c-0.0039-1.0742-0.4219-2.082-1.1836-2.8438L172.7422,36.9727z"/>
	<path fill="#1C71DA" d="M51.1172,158.5977c-2.2734-2.2734-5.2891-3.5234-8.5-3.5234h-0.0039c-3.207,0-6.2266,1.2539-8.4922,3.5234   l-2.8008,2.7969c-2.2734,2.2734-3.5273,5.293-3.5273,8.5c0,3.211,1.2539,6.2305,3.5273,8.5l19.5781,19.5781   c2.2734,2.2734,5.2891,3.5234,8.4961,3.5234c0.0039,0,0.0039,0,0.0078,0c3.207,0,6.2227-1.2539,8.4922-3.5234l2.8008-2.8008   c4.6875-4.6875,4.6875-12.3086,0-16.9961L51.1172,158.5977z M65.0391,189.5156l-2.8008,2.8008   c-0.7617,0.7617-1.7695,1.1797-2.8398,1.1797h-0.0039c-1.0703,0-2.0781-0.418-2.8398-1.1797l-19.5781-19.5781v-0.0039   c-0.7617-0.7578-1.1836-1.7656-1.1836-2.8398c0-1.0703,0.4219-2.0781,1.1836-2.8398l2.8047-2.8008   c0.7578-0.7617,1.7656-1.1797,2.8359-1.1797c1.0742,0,2.082,0.418,2.8438,1.1797l19.5781,19.5781   c0.7617,0.7617,1.1797,1.7695,1.1797,2.8398S65.8008,188.7539,65.0391,189.5156z"/>
	<path fill="#1C71DA" d="M102.0312,107.6836c-4.6875-4.6875-12.3125-4.6875-17,0l-2.8047,2.8008   c-4.6797,4.6914-4.6797,12.3164,0.0039,17l19.5781,19.5781c2.3398,2.3438,5.418,3.5117,8.4961,3.5117s6.1602-1.1719,8.5078-3.5117   l2.793-2.8008c2.2773-2.2773,3.5273-5.2969,3.5273-8.5078c-0.0039-3.2031-1.2539-6.2227-3.5273-8.4922L102.0312,107.6836z    M115.9453,138.6055l-2.793,2.7969c-1.5742,1.5742-4.1211,1.5625-5.6875,0.0039l-19.5781-19.5781   c-1.5664-1.5664-1.5664-4.1172,0-5.6875l2.8008-2.7969c0.7852-0.7852,1.8164-1.1797,2.8438-1.1797   c1.0312,0,2.0586,0.3945,2.8438,1.1758l19.5742,19.5781c0.7617,0.7617,1.1797,1.7695,1.1836,2.8438   C117.1328,136.832,116.7109,137.8438,115.9453,138.6055z"/>
	<path fill="#1C71DA" d="M152.9414,56.7734c-2.2734-2.2734-5.2891-3.5234-8.5-3.5234h-0.0039c-3.207,0-6.2266,1.2539-8.5,3.5234   l-2.793,2.7969c-2.2734,2.2734-3.5273,5.293-3.5273,8.5c0,3.2109,1.2539,6.2266,3.5273,8.5l19.5742,19.5781   c2.2734,2.2734,5.2891,3.5234,8.5,3.5234h0.0039c3.207,0,6.2266-1.2539,8.4961-3.5234l2.8008-2.8008   c4.6875-4.6875,4.6875-12.3086,0-16.9961L152.9414,56.7734z M166.8633,87.6914l-2.8008,2.8008   c-0.7617,0.7617-1.7695,1.1797-2.8438,1.1797s-2.082-0.418-2.8438-1.1797l-19.5742-19.5781v-0.0039   c-0.7617-0.7578-1.1836-1.7656-1.1836-2.8398c0-1.0703,0.4219-2.0781,1.1875-2.8398l2.793-2.8008   c0.7617-0.7617,1.7695-1.1797,2.8438-1.1797s2.082,0.418,2.8438,1.1797l19.5781,19.5781c0.7617,0.7617,1.1796,1.7695,1.1796,2.8398   S167.625,86.9297,166.8633,87.6914z"/>
	<path fill="#1C71DA" d="M76.5742,133.1406c-4.6875-4.6875-12.3125-4.6875-17,0l-2.8047,2.8008   c-4.6797,4.6875-4.6758,12.3164,0.0078,17l19.5703,19.5742c2.3438,2.3438,5.4219,3.5156,8.5039,3.5156   c3.0781,0,6.1562-1.1719,8.5039-3.5117l2.7969-2.8047c2.2734-2.2734,3.5273-5.293,3.5234-8.5039   c0-3.2031-1.2539-6.2227-3.5234-8.4922L76.5742,133.1406z M90.4922,164.0586l-2.7969,2.8008c-1.5625,1.5664-4.1172,1.5703-5.6875,0   l-19.5742-19.5742c-1.5664-1.5664-1.5703-4.1211-0.0039-5.6875l2.8008-2.8008c0.7617-0.7617,1.7695-1.1797,2.8438-1.1797   s2.082,0.418,2.8438,1.1797l19.5781,19.5781c0.7617,0.7617,1.1797,1.7695,1.1797,2.8398S91.2578,163.2969,90.4922,164.0586z"/>
	<path fill="#1C71DA" d="M127.4844,82.2305c-4.6875-4.6875-12.3086-4.6797-16.9961,0l-2.8008,2.7969   c-2.2773,2.2773-3.5273,5.2969-3.5273,8.5078c0.0039,3.207,1.2539,6.2227,3.5273,8.4922l19.5781,19.5781   c2.3438,2.3437,5.4219,3.5156,8.4961,3.5156c3.0781,0,6.1562-1.1719,8.5-3.5156l2.8008-2.7969   c2.2734-2.2734,3.5273-5.293,3.5273-8.5c0-3.2109-1.2539-6.2305-3.5273-8.5L127.4844,82.2305z M141.4062,113.1484l-2.8008,2.8008   c-0.7617,0.7617-1.7695,1.1797-2.8398,1.1797h-0.0039c-1.0703,0-2.0781-0.418-2.8398-1.1797l-19.5781-19.5781   c-0.7617-0.7617-1.1797-1.7695-1.1836-2.8398c0-1.0703,0.4219-2.082,1.1836-2.8438l2.8008-2.8008   c0.7617-0.7617,1.7695-1.1797,2.8398-1.1797h0.0039c1.0703,0,2.0781,0.418,2.8398,1.1797l19.5781,19.582   c0.7617,0.7578,1.1836,1.7656,1.1836,2.8398C142.5898,111.3789,142.168,112.3867,141.4062,113.1484z"/>
	<path fill="#1C71DA" d="M178.3984,31.3164c-2.2734-2.2734-5.2891-3.5234-8.5-3.5234h-0.0039c-3.207,0-6.2266,1.2539-8.4961,3.5234   l-2.8047,2.8008c-4.6797,4.6914-4.6797,12.3164,0.0039,17l19.5742,19.5742c2.3438,2.3438,5.4219,3.5156,8.5039,3.5156   c3.0781,0,6.1562-1.1719,8.5039-3.5117l2.793-2.8008c2.2773-2.2773,3.5273-5.2969,3.5273-8.5078   c-0.0039-3.2031-1.2539-6.2227-3.5273-8.4922L178.3984,31.3164z M192.3125,62.2383l-2.793,2.7969   c-1.5625,1.5664-4.1172,1.5703-5.6875,0l-19.5781-19.5742c-1.5664-1.5664-1.5664-4.1172,0-5.6875l2.8008-2.8008   c0.7617-0.7617,1.7695-1.1797,2.8438-1.1797s2.082,0.418,2.8438,1.1797l19.5742,19.5781c0.7617,0.7617,1.1797,1.7695,1.1836,2.8438   C193.5,60.4648,193.0781,61.4766,192.3125,62.2383z"/>
	<path fill="#1C71DA" d="M231.9297,67.8828l5.6562-5.6562l-8.4863-8.4863l0.002-0.002L175.3633,0L0,175.3594l46.6682,46.6719H46.668   l15.5547,15.5547l5.6562-5.6562l-8.4844-8.4844l5.6582-5.6582l8.4863,8.4863l5.6562-5.6562l-8.4863-8.4863l5.657-5.6572   l8.4856,8.4834l5.6562-5.6562l-8.4856-8.4834l5.6575-5.6572l8.4844,8.4844l5.6562-5.6562l-8.4844-8.4844l5.6582-5.6582   l8.4863,8.4863l5.6562-5.6562l-8.4863-8.4863l5.6562-5.6562l8.4863,8.4863l5.6562-5.6562l-8.4863-8.4863l5.6594-5.6592   l8.4832,8.4854l5.6562-5.6562l-8.4832-8.4854l5.6558-5.6562l8.4875,8.4854l16.9688-16.9688l-8.4851-8.4873l5.6582-5.6582   l8.4832,8.4854l5.6562-5.6562l-8.4832-8.4854l5.6558-5.6562l8.4875,8.4854l5.6562-5.6562l-8.4875-8.4854l5.6582-5.6582   l8.4856,8.4834l5.6562-5.6562l-8.4856-8.4834l5.6575-5.6572l8.4844,8.4844l5.6562-5.6562l-8.4844-8.4844l5.6555-5.6553   l8.4851,8.4873l5.6562-5.6562l-8.4851-8.4873l5.6589-5.6592l8.4863,8.4863l5.6562-5.6562l-8.4863-8.4863l5.6562-5.6562   L231.9297,67.8828z M147.0781,141.4219l-5.6562,5.6562l-2.832-2.8281l5.6602-5.6602L147.0781,141.4219z M144.25,127.2773   L127.2773,144.25l-73.5391,73.5391l-42.4258-42.4297L175.3633,11.3125l41.0137,41.0137l-0.002,0.002l1.4121,1.4121L144.25,127.2773   z"/>
</g>
<path fill="#FF5D5D" d="M79.0449,46.6172c-1.0234,0-2.0479-0.3906-2.8281-1.1719c-1.5625-1.5615-1.5625-4.0947,0-5.6562  l14.1426-14.1426c1.5605-1.5625,4.0957-1.5625,5.6562,0c1.5625,1.5615,1.5625,4.0947,0,5.6562L81.873,45.4453  C81.0928,46.2266,80.0684,46.6172,79.0449,46.6172z"/>
<path fill="#FF5D5D" d="M93.1875,46.6152c-1.0234,0-2.0479-0.3906-2.8281-1.1719L76.2168,31.3008  c-1.5625-1.5615-1.5625-4.0947,0-5.6562c1.5605-1.5625,4.0957-1.5625,5.6562,0l14.1426,14.1426  c1.5625,1.5615,1.5625,4.0947,0,5.6562C95.2354,46.2246,94.2109,46.6152,93.1875,46.6152z"/>
<path fill="#00D40B" d="M201.0449,214.6152c-7.7197,0-14-6.2803-14-14s6.2803-14,14-14s14,6.2803,14,14  S208.7646,214.6152,201.0449,214.6152z M201.0449,194.6152c-3.3086,0-6,2.6914-6,6s2.6914,6,6,6s6-2.6914,6-6  S204.3535,194.6152,201.0449,194.6152z"/>
<path fill="#FFC504" d="M22.3594,125.2422c-1.0234,0-2.0469-0.3906-2.8281-1.1719L8.2168,112.7568  c-0.75-0.75-1.1719-1.7676-1.1719-2.8281s0.4219-2.0781,1.1719-2.8281l11.3145-11.3135c1.5625-1.5625,4.0938-1.5625,5.6562,0  l11.3135,11.3135c1.5625,1.5615,1.5625,4.0947,0,5.6562l-11.3135,11.3135C24.4072,124.8516,23.3828,125.2422,22.3594,125.2422z   M16.7021,109.9287l5.6572,5.6572l5.6562-5.6572l-5.6562-5.6572L16.7021,109.9287z"/>
</svg>